HIERARCHY
ROOT Hips
{
	OFFSET 0.00000 0.00000 0.00000
	CHANNELS 6 Xposition Yposition Zposition Zrotation Yrotation Xrotation 
	JOINT LHipJoint
	{
		OFFSET 0 0 0
		CHANNELS 3 Zrotation Yrotation Xrotation
		JOINT LeftUpLeg
		{
			OFFSET 1.62329 -1.80800 0.67318
			CHANNELS 3 Zrotation Yrotation Xrotation
			JOINT LeftLeg
			{
				OFFSET 2.57139 -7.06484 0.00000
				CHANNELS 3 Zrotation Yrotation Xrotation
				JOINT LeftFoot
				{
					OFFSET 2.52017 -6.92413 0.00000
					CHANNELS 3 Zrotation Yrotation Xrotation
					JOINT LeftToeBase
					{
						OFFSET 0.23295 -0.64001 2.10214
						CHANNELS 3 Zrotation Yrotation Xrotation
						End Site
						{
							OFFSET 0.00000 -0.00000 1.10139
						}
					}
				}
			}
		}
	}
	JOINT RHipJoint
	{
		OFFSET 0 0 0
		CHANNELS 3 Zrotation Yrotation Xrotation
		JOINT RightUpLeg
		{
			OFFSET -1.48061 -1.80800 0.67318
			CHANNELS 3 Zrotation Yrotation Xrotation
			JOINT RightLeg
			{
				OFFSET -2.63258 -7.23296 0.00000
				CHANNELS 3 Zrotation Yrotation Xrotation
				JOINT RightFoot
				{
					OFFSET -2.54779 -7.00000 0.00000
					CHANNELS 3 Zrotation Yrotation Xrotation
					JOINT RightToeBase
					{
						OFFSET -0.23067 -0.63376 2.12161
						CHANNELS 3 Zrotation Yrotation Xrotation
						End Site
						{
							OFFSET -0.00000 -0.00000 1.11000
						}
					}
				}
			}
		}
	}
	JOINT LowerBack
	{
		OFFSET 0 0 0
		CHANNELS 3 Zrotation Yrotation Xrotation
		JOINT Spine
		{
			OFFSET -0.02108 2.07573 -0.16981
			CHANNELS 3 Zrotation Yrotation Xrotation
			JOINT Spine1
			{
				OFFSET 0.05070 2.08439 -0.03141
				CHANNELS 3 Zrotation Yrotation Xrotation
				JOINT Neck
				{
					OFFSET 0 0 0
					CHANNELS 3 Zrotation Yrotation Xrotation
					JOINT Neck1
					{
						OFFSET -0.10731 1.60408 0.31370
						CHANNELS 3 Zrotation Yrotation Xrotation
						JOINT Head
						{
							OFFSET 0.08411 1.65679 -0.30822
							CHANNELS 3 Zrotation Yrotation Xrotation
							End Site
							{
								OFFSET 0.03911 1.69149 -0.14146
							}
						}
					}
				}
				JOINT LeftShoulder
				{
					OFFSET 0 0 0
					CHANNELS 3 Zrotation Yrotation Xrotation
					JOINT LeftArm
					{
						OFFSET 3.52315 0.73219 -0.54694
						CHANNELS 3 Zrotation Yrotation Xrotation
						JOINT LeftForeArm
						{
							OFFSET 5.32462 -0.00000 -0.00000
							CHANNELS 3 Zrotation Yrotation Xrotation
							JOINT LeftHand
							{
								OFFSET 3.48402 -0.00000 -0.00000
								CHANNELS 3 Zrotation Yrotation Xrotation
								JOINT LeftFingerBase
								{
									OFFSET 0 0 0
									CHANNELS 3 Zrotation Yrotation Xrotation
									JOINT LeftHandIndex1
									{
										OFFSET 0.57248 -0.00000 -0.00000
										CHANNELS 3 Zrotation Yrotation Xrotation
										End Site
										{
											OFFSET 0.46154 -0.00000 -0.00000
										}
									}
								}
								JOINT LThumb
								{
									OFFSET 0 0 0
									CHANNELS 3 Zrotation Yrotation Xrotation
									End Site
									{
										OFFSET 0.46859 -0.00000 0.46859
									}
								}
							}
						}
					}
				}
				JOINT RightShoulder
				{
					OFFSET 0 0 0
					CHANNELS 3 Zrotation Yrotation Xrotation
					JOINT RightArm
					{
						OFFSET -3.41766 0.93592 -0.10019
						CHANNELS 3 Zrotation Yrotation Xrotation
						JOINT RightForeArm
						{
							OFFSET -5.33589 -0.00000 -0.00000
							CHANNELS 3 Zrotation Yrotation Xrotation
							JOINT RightHand
							{
								OFFSET -3.64134 -0.00000 -0.00000
								CHANNELS 3 Zrotation Yrotation Xrotation
								JOINT RightFingerBase
								{
									OFFSET 0 0 0
									CHANNELS 3 Zrotation Yrotation Xrotation
									JOINT RightHandIndex1
									{
										OFFSET -0.73481 -0.00000 -0.00000
										CHANNELS 3 Zrotation Yrotation Xrotation
										End Site
										{
											OFFSET -0.59242 -0.00000 -0.00000
										}
									}
								}
								JOINT RThumb
								{
									OFFSET 0 0 0
									CHANNELS 3 Zrotation Yrotation Xrotation
									End Site
									{
										OFFSET -0.60147 -0.00000 0.60147
									}
								}
							}
						}
					}
				}
			}
		}
	}
}
MOTION
Frames: 10
Frame Time: .0083333
1.4738 17.8471 -0.6762 0 0 0 0 0 0 -21 0 0 0 0 0 0 0 0 0 0 0 0 0 0 21 0 0 0 0 0 0 0 0 0 0 0 0 0 0 0 0 0 0 0 0 0 0 -16 0 0 21 0 0 11 0 0 0 -8 0 0 0 0 0 0 0 0 0 0 0 0 0 0 0 0 0 0 0 0 8 0 0 0 0 0 0 0 0 0 0 0 0 0 0 0 0 0
1.4738 17.8471 -0.6762 1.8240 -16.0658 5.6692 0.0000 0.0000 0.0000 -24.9130 -2.8029 -12.4115 1.4935 7.7201 21.8671 0.4333 -4.7256 -11.7174 0.1783 -2.7202 -7.5007 0.0000 0.0000 0.0000 8.0934 8.7864 -17.9560 -2.5538 -9.9351 28.7670 -0.7261 -3.7826 -17.9055 -0.0010 -0.2058 0.5654 -6.2618 0.3606 4.9601 -0.4781 0.1627 1.5869 3.0104 0.0777 -1.1588 -14.8481 -6.6741 -17.3692 5.1265 -6.3889 21.2117 3.3378 -3.5729 10.3479 0.0000 0.0000 0.0000 -86.6425 0.7742 13.2340 15.6774 -25.0813 -3.5081 -0.0000 -0.0000 9.3548 7.9190 28.5406 3.8023 -7.1250 0.0000 -0.0000 -24.8685 56.9664 -7.6133 0.0000 0.0000 0.0000 86.2012 5.4930 27.0164 -20.9399 31.7581 -6.0183 0.0000 0.0000 18.9238 -22.6922 3.7744 -1.5767 7.1250 -0.0000 -0.0000 2.9785 -25.8883 1.3809
1.4739 17.8463 -0.6749 1.9191 -16.2276 5.6350 0.0000 0.0000 0.0000 -25.0232 -2.8055 -12.3485 1.4824 7.6927 21.7845 0.4386 -4.5995 -11.7842 0.1855 -2.7737 -7.6494 0.0000 0.0000 0.0000 7.9716 8.8778 -18.0012 -2.5650 -9.9552 28.8317 -0.7273 -3.7098 -17.8750 -0.0027 -0.3383 0.9295 -6.3422 0.3540 4.9310 -0.4929 0.1535 1.6307 3.0408 0.0702 -1.0964 -14.7766 -6.6427 -17.3991 5.1129 -6.3540 21.0919 3.3255 -3.5490 10.3024 0.0000 -0.0000 0.0000 -86.5650 0.6532 13.4580 15.9203 -25.4125 -3.6117 -0.0000 -0.0000 9.1842 9.0694 27.1860 4.1712 -7.1250 0.0000 -0.0000 -22.7871 55.9685 -6.3668 0.0000 -0.0000 0.0000 86.2645 5.5699 27.0542 -20.8332 31.6331 -5.9622 0.0000 0.0000 18.9745 -22.6313 3.7649 -1.5681 7.1250 -0.0000 -0.0000 3.0246 -25.9003 1.4015
1.4734 17.8445 -0.6750 2.0281 -16.3693 5.5903 0.0000 0.0000 0.0000 -25.1467 -2.8133 -12.3135 1.4808 7.6887 21.7724 0.4489 -4.4930 -11.9189 0.2002 -2.8810 -7.9476 0.0000 0.0000 0.0000 7.8427 8.9806 -18.0168 -2.5691 -9.9625 28.8554 -0.7243 -3.6908 -17.8325 -0.0037 -0.3929 1.0795 -6.4711 0.3436 4.9043 -0.4852 0.1373 1.6768 3.1220 0.0589 -1.0322 -14.7546 -6.6453 -17.5334 5.1389 -6.3489 21.1307 3.3300 -3.5410 10.3406 0.0000 0.0000 0.0000 -86.5664 0.5406 13.6196 16.1232 -25.6874 -3.6992 -0.0000 -0.0000 9.0508 10.3886 25.9661 4.5892 -7.1250 0.0000 -0.0000 -20.7107 55.0975 -5.3027 0.0000 0.0000 0.0000 86.3148 5.6650 27.0633 -20.7275 31.5089 -5.9069 0.0000 0.0000 18.9580 -22.5573 3.8968 -1.6170 7.1250 -0.0000 -0.0000 3.0797 -25.7599 1.4372
1.4738 17.8419 -0.6765 2.0847 -16.4980 5.5527 0.0000 0.0000 0.0000 -25.2226 -2.7724 -12.2965 1.4806 7.6881 21.7706 0.4468 -4.3500 -11.8900 0.1933 -2.8311 -7.8089 0.0000 0.0000 0.0000 7.7755 9.0528 -18.0234 -2.5721 -9.9678 28.8725 -0.7240 -3.6376 -17.7976 -0.0044 -0.4286 1.1776 -6.5342 0.3339 4.9101 -0.4551 0.1224 1.7042 3.1894 0.0498 -1.0055 -14.7638 -6.6641 -17.6886 5.1317 -6.3478 21.2493 3.3268 -3.5428 10.4127 0.0000 0.0000 0.0000 -86.5282 0.4328 14.0097 16.2601 -25.8720 -3.7587 -0.0000 -0.0000 8.7608 11.0268 25.8000 4.8478 -7.1250 0.0000 -0.0000 -19.9801 55.0646 -5.0878 0.0000 0.0000 0.0000 86.3528 5.7778 27.0388 -20.5446 31.2929 -5.8116 0.0000 0.0000 18.9378 -22.6216 3.8855 -1.6174 7.1250 -0.0000 -0.0000 3.0312 -25.7703 1.4137
1.4739 17.8418 -0.6790 2.0514 -16.5843 5.5638 0.0000 0.0000 0.0000 -25.1929 -2.7547 -12.3036 1.4834 7.6951 21.7917 0.4453 -4.2482 -11.8696 0.1868 -2.7836 -7.6767 0.0000 0.0000 0.0000 7.8094 9.1448 -18.0350 -2.5713 -9.9665 28.8683 -0.7151 -3.6940 -17.7345 -0.0033 -0.3723 1.0230 -6.4989 0.3257 4.9678 -0.4192 0.1081 1.6739 3.2076 0.0454 -1.0676 -14.6872 -6.6576 -17.7481 5.0471 -6.3328 21.3624 3.2859 -3.5417 10.4577 0.0000 -0.0000 0.0000 -86.4605 0.4198 14.4206 16.4487 -26.1253 -3.8414 -0.0000 -0.0000 8.4217 11.2393 25.9174 4.9640 -7.1250 0.0000 -0.0000 -19.8389 55.2159 -5.1239 0.0000 -0.0000 0.0000 86.4165 5.7428 26.9897 -20.4125 31.1361 -5.7431 0.0000 0.0000 18.8623 -22.5605 3.8208 -1.5858 7.1250 -0.0000 -0.0000 3.0778 -25.8419 1.4304
1.4743 17.8421 -0.6822 2.0032 -16.6425 5.6177 0.0000 0.0000 0.0000 -25.1384 -2.8626 -12.3447 1.4902 7.7120 21.8426 0.4496 -4.1028 -11.9296 0.1794 -2.7282 -7.5229 0.0000 0.0000 0.0000 7.8581 9.1989 -18.0880 -2.5666 -9.9579 28.8406 -0.7040 -3.7705 -17.6608 -0.0009 -0.1955 0.5370 -6.4631 0.2912 5.0469 -0.3679 0.0558 1.5985 3.2437 0.0247 -1.1845 -14.7026 -6.6113 -17.7273 5.0804 -6.2773 21.4094 3.3101 -3.5157 10.4664 0.0000 0.0000 0.0000 -86.4276 0.4575 14.6045 16.6405 -26.3814 -3.9262 -0.0000 -0.0000 8.2900 11.4499 25.3205 4.9508 -7.1250 0.0000 -0.0000 -19.2827 54.6936 -4.7231 0.0000 0.0000 0.0000 86.4639 5.6132 27.0076 -20.3134 31.0180 -5.6919 0.0000 0.0000 18.8066 -22.4687 3.8629 -1.5960 7.1250 -0.0000 -0.0000 3.1469 -25.7992 1.4658
1.4753 17.8414 -0.6814 1.9804 -16.7182 5.6620 0.0000 0.0000 0.0000 -25.1161 -2.9074 -12.4039 1.4987 7.7330 21.9060 0.4524 -4.0413 -11.9669 0.1752 -2.6962 -7.4340 0.0000 0.0000 0.0000 7.8780 9.2025 -18.1472 -2.5616 -9.9491 28.8122 -0.6978 -3.7955 -17.6087 -0.0003 -0.1177 0.3233 -6.4118 0.2454 4.9747 -0.3234 0.0040 1.6021 3.2640 -0.0027 -1.1352 -14.7717 -6.5677 -17.6667 5.1597 -6.2249 21.3288 3.3589 -3.4871 10.4250 0.0000 -0.0000 0.0000 -86.3836 0.3559 14.7693 16.7546 -26.5331 -3.9771 -0.0000 -0.0000 8.2688 11.7762 24.2341 4.8910 -7.1250 0.0000 -0.0000 -18.3636 53.7236 -4.0446 0.0000 -0.0000 0.0000 86.4969 5.6647 26.9980 -20.1478 30.8200 -5.6069 0.0000 0.0000 18.9338 -21.9091 3.2094 -1.2899 7.1250 -0.0000 -0.0000 3.5795 -26.5179 1.6077
1.4746 17.8406 -0.6816 1.9490 -16.7738 5.7087 0.0000 0.0000 0.0000 -25.0853 -2.8181 -12.5167 1.5078 7.7554 21.9735 0.4606 -4.0967 -12.0756 0.2211 -3.0267 -8.3532 0.0000 0.0000 0.0000 7.9075 9.2557 -18.1883 -2.5577 -9.9421 28.7894 -0.6995 -3.7748 -17.6138 -0.0009 -0.1926 0.5293 -6.3218 0.2165 4.8726 -0.3066 -0.0202 1.6537 3.2322 -0.0194 -1.0225 -14.7700 -6.5337 -17.5696 5.2345 -6.2085 21.1468 3.3889 -3.4674 10.3406 -0.0000 0.0000 0.0000 -86.2709 0.1883 15.0760 16.9202 -26.7525 -4.0514 -0.0000 -0.0000 8.1701 11.9156 23.8896 4.8845 -7.1250 0.0000 -0.0000 -18.0463 53.4202 -3.8351 -0.0000 0.0000 0.0000 86.5771 5.8053 26.9646 -20.0135 30.6585 -5.5382 0.0000 0.0000 19.0679 -20.9492 1.5594 -0.5969 7.1250 -0.0000 -0.0000 4.3595 -28.3003 1.7763
1.4737 17.8400 -0.6865 1.9441 -16.8365 5.7199 0.0000 0.0000 0.0000 -25.0668 -2.7392 -12.6085 1.5156 7.7745 22.0311 0.4665 -4.1698 -12.1522 0.2322 -3.1012 -8.5606 0.0000 0.0000 0.0000 7.9223 9.3023 -18.2098 -2.5558 -9.9387 28.7783 -0.6919 -3.8069 -17.5509 -0.0005 -0.1397 0.3840 -6.3005 0.1861 4.8757 -0.2825 -0.0564 1.7380 3.2471 -0.0422 -0.9333 -14.6819 -6.5186 -17.6766 5.2349 -6.1912 21.0121 3.3746 -3.4469 10.3057 -0.0000 -0.0000 0.0000 -86.1951 -0.0332 15.2783 17.1130 -27.0065 -4.1385 -0.0000 -0.0000 8.1347 11.9593 24.0308 4.9299 -7.1250 0.0000 -0.0000 -18.0770 53.5629 -3.9061 -0.0000 -0.0000 0.0000 86.6196 5.9925 27.0227 -19.9188 30.5444 -5.4900 0.0000 0.0000 19.0633 -20.4956 0.4684 -0.1751 7.1250 -0.0000 -0.0000 4.7580 -29.4643 1.8079
